<svg xmlns="http://www.w3.org/2000/svg" viewBox="0 0 103 103" id="contactMsgIconPosFix">
	<path class="svgFillDarkGrey" d="M71.5 43.2c-.5 0-.8.4-.8.8v29.2c0 .9-.7 1.7-1.7 1.7H29.8c-.9 0-1.7-.7-1.7-1.7V34c0-.9.7-1.7 1.7-1.7H59c.5 0 .8-.4.8-.8s-.4-.8-.8-.8H29.8c-1.8 0-3.3 1.5-3.3 3.3v39.2c0 1.8 1.5 3.3 3.3 3.3H69c1.8 0 3.3-1.5 3.3-3.3V44c0-.5-.3-.8-.8-.8z"/>
	<path class="svgFillDarkGrey" d="M69.8 26.5a6.7 6.7 0 1 0 0 13.4 6.7 6.7 0 0 0 0-13.4zm0 11.7c-2.8 0-5-2.2-5-5s2.2-5 5-5 5 2.2 5 5-2.2 5-5 5z"/>
	<circle class="circleIcon"/>
</svg>
