<svg xmlns="http://www.w3.org/2000/svg" viewBox="0 0 102 102">
	<path class="svgFillDarkGrey" d="M31.6 40.4c-3.1 0-5.6 2.5-5.6 5.6s2.5 5.6 5.6 5.6 5.6-2.5 5.6-5.6-2.6-5.6-5.6-5.6zm0 8.9c-1.8 0-3.3-1.5-3.3-3.3s1.5-3.3 3.3-3.3c1.8 0 3.3 1.5 3.3 3.3s-1.5 3.3-3.3 3.3zm43.3-4.4H41.6c-.6 0-1.1.5-1.1 1.1s.5 1.1 1.1 1.1h33.3c.6 0 1.1-.5 1.1-1.1s-.5-1.1-1.1-1.1zm0 13.3H41.6c-.6 0-1.1.5-1.1 1.1s.5 1.1 1.1 1.1h33.3c.6 0 1.1-.5 1.1-1.1s-.5-1.1-1.1-1.1z"/>
	<circle class="svgFillDarkGrey" cx="31.6" cy="59.3" r="2.2"/>
	<circle class="circleIcon"/>
</svg>
