<svg xmlns="http://www.w3.org/2000/svg" viewBox="0 0 100 100">
	<g class="svgFillGold">
		<path d="M29.2 69.4c-1.2-.4-2.4-1.1-3.8-1.9-1.3-.8-2.8-1.9-4.2-3.1-1.4 1.5-2.9 2.7-4.6 3.6-1.7.9-3.6 1.4-5.7 1.4-1.5 0-2.9-.2-4.2-.7-1.3-.5-2.5-1.2-3.4-2.1s-1.8-2-2.4-3.3C.3 62 0 60.6 0 59c0-1.2.2-2.4.7-3.4.4-1.1 1-2 1.8-3 .7-1 1.5-1.9 2.5-2.7l3-2.4c-.8-1.7-1.5-3.3-1.9-5-.5-1.6-.7-3.2-.7-4.7 0-1.2.2-2.3.6-3.4.4-1 .9-1.9 1.6-2.7.6-.7 1.4-1.3 2.3-1.7.9-.4 1.9-.6 3.1-.6 2 0 3.5.6 4.5 1.9 1 1.3 1.5 2.9 1.5 4.8 0 1.2-.3 2.4-.8 3.4s-1.2 2-2 3c-.8.9-1.8 1.8-2.9 2.7-1.1.9-2.2 1.7-3.3 2.6 1.4 2.6 3 5.2 5 7.7s4 4.6 6 6.5c1.5-1.8 2.7-3.9 3.8-6.1 1-2.2 1.9-4.6 2.6-7.2h1.8c-.8 2.7-1.7 5.2-2.9 7.7-1.1 2.4-2.5 4.6-4 6.6 2.7 2.3 5.3 3.8 7.6 4.7l-.7 1.7zM11 67.7c1.7 0 3.3-.4 4.8-1.3 1.5-.8 2.9-1.9 4.1-3.2-2.1-2-4.2-4.2-6.2-6.7s-3.7-5-5.1-7.7c-.9.7-1.8 1.4-2.6 2.2-.8.7-1.5 1.5-2.2 2.3-.6.8-1.1 1.7-1.5 2.6-.4.9-.6 1.9-.6 2.9 0 1.4.2 2.6.7 3.7.5 1.1 1.1 2 2 2.8.8.8 1.8 1.4 2.9 1.8 1.3.4 2.4.6 3.7.6zm-3.9-30c0 1.4.2 2.8.6 4.3.4 1.5 1 3 1.7 4.5 1-.7 2-1.5 2.9-2.2 1-.8 1.8-1.5 2.5-2.4.7-.8 1.3-1.7 1.8-2.6.4-.9.7-1.9.7-2.9 0-.6-.1-1.3-.2-1.9-.2-.6-.4-1.2-.8-1.7s-.8-.9-1.4-1.2c-.6-.3-1.3-.5-2.1-.5-.9 0-1.7.2-2.4.5-.7.4-1.3.8-1.8 1.4-.5.6-.9 1.3-1.1 2.1-.2.9-.4 1.7-.4 2.6zM64.3 69.4c-1.2-.4-2.4-1.1-3.8-1.9-1.3-.8-2.8-1.9-4.2-3.1-1.4 1.5-2.9 2.7-4.6 3.6-1.7.9-3.6 1.4-5.7 1.4-1.5 0-2.9-.2-4.2-.7-1.3-.5-2.5-1.2-3.4-2.1s-1.8-2-2.4-3.3c-.7-1.3-1-2.7-1-4.3 0-1.2.2-2.4.7-3.4.4-1.1 1-2 1.8-3 .7-.9 1.6-1.8 2.6-2.6l3-2.4c-.8-1.7-1.5-3.3-1.9-5-.5-1.6-.7-3.2-.7-4.7 0-1.2.2-2.3.6-3.4.4-1 .9-1.9 1.6-2.7.7-.8 1.5-1.3 2.4-1.8.9-.4 1.9-.6 3.1-.6 2 0 3.5.6 4.5 1.9 1 1.3 1.5 2.9 1.5 4.8 0 1.2-.3 2.4-.8 3.4s-1.2 2-2 3c-.8.9-1.8 1.8-2.9 2.7-1.1.9-2.2 1.7-3.3 2.6 1.4 2.6 3 5.2 5 7.7s4 4.6 6 6.5c1.5-1.8 2.7-3.9 3.8-6.1 1-2.2 1.9-4.6 2.6-7.2h1.8c-.8 2.7-1.7 5.2-2.9 7.7-1.1 2.4-2.5 4.6-4 6.6 2.7 2.3 5.3 3.8 7.6 4.7l-.8 1.7zM46 67.7c1.7 0 3.3-.4 4.8-1.3 1.5-.8 2.9-1.9 4.1-3.2-2.1-2-4.2-4.2-6.2-6.7s-3.7-5-5.1-7.7c-.9.7-1.8 1.4-2.6 2.2-.8.7-1.5 1.5-2.2 2.3-.6.8-1.1 1.7-1.5 2.6-.4.9-.6 1.9-.6 2.9 0 1.4.2 2.6.7 3.7.5 1.1 1.1 2 2 2.8.8.8 1.8 1.4 2.9 1.8 1.3.4 2.5.6 3.7.6zm-3.8-30c0 1.4.2 2.8.6 4.3.4 1.5 1 3 1.7 4.5 1-.7 2-1.5 2.9-2.2 1-.8 1.8-1.5 2.5-2.4.7-.8 1.3-1.7 1.8-2.6.4-.9.7-1.9.7-2.9 0-.6-.1-1.3-.2-1.9-.2-.6-.4-1.2-.8-1.7s-.8-.9-1.4-1.2c-.6-.3-1.3-.5-2.1-.5-.9 0-1.7.2-2.4.5-.7.4-1.3.8-1.8 1.4-.5.6-.9 1.3-1.1 2.1-.3.9-.4 1.7-.4 2.6zM99.3 69.4c-1.2-.4-2.4-1.1-3.8-1.9-1.3-.8-2.8-1.9-4.2-3.1-1.4 1.5-2.9 2.7-4.6 3.6-1.7.9-3.6 1.4-5.7 1.4-1.5 0-2.9-.2-4.2-.7-1.3-.5-2.5-1.2-3.4-2.1-1-.9-1.8-2-2.4-3.3-.6-1.3-.9-2.7-.9-4.3 0-1.2.2-2.4.7-3.4.4-1.1 1-2 1.8-3 .7-.9 1.6-1.8 2.6-2.6l3-2.4c-.8-1.7-1.5-3.3-1.9-5-.5-1.6-.7-3.2-.7-4.7 0-1.2.2-2.3.6-3.4.4-1 .9-1.9 1.6-2.7.7-.8 1.5-1.3 2.4-1.8.9-.4 1.9-.6 3.1-.6 2 0 3.5.6 4.5 1.9 1 1.3 1.5 2.9 1.5 4.8 0 1.2-.3 2.4-.8 3.4s-1.2 2-2 3c-.8.9-1.8 1.8-2.9 2.7-1.1.9-2.2 1.7-3.3 2.6 1.4 2.6 3 5.2 5 7.7s4 4.6 6 6.5c1.5-1.8 2.7-3.9 3.8-6.1 1-2.2 1.9-4.6 2.6-7.2h1.8c-.8 2.7-1.7 5.2-2.9 7.7-1.1 2.4-2.5 4.6-4 6.6 2.7 2.3 5.3 3.8 7.6 4.7l-.9 1.7zm-18.2-1.7c1.7 0 3.3-.4 4.8-1.3 1.5-.8 2.9-1.9 4.1-3.2-2.1-2-4.2-4.2-6.2-6.7s-3.7-5-5.1-7.7c-.9.7-1.8 1.4-2.6 2.2-.8.7-1.5 1.5-2.2 2.3-.6.8-1.1 1.7-1.5 2.6-.4.9-.6 1.9-.6 2.9 0 1.4.2 2.6.7 3.7.5 1.1 1.1 2 2 2.8.8.8 1.8 1.4 2.9 1.8 1.3.4 2.4.6 3.7.6zm-3.9-30c0 1.4.2 2.8.6 4.3.4 1.5 1 3 1.7 4.5 1-.7 2-1.5 2.9-2.2 1-.8 1.8-1.5 2.5-2.4.7-.8 1.3-1.7 1.8-2.6.4-.9.7-1.9.7-2.9 0-.6-.1-1.3-.2-1.9-.2-.6-.4-1.2-.8-1.7s-.8-.9-1.4-1.2c-.6-.3-1.3-.5-2.1-.5-.9 0-1.7.2-2.4.5-.7.4-1.3.8-1.8 1.4-.5.6-.9 1.3-1.1 2.1-.3.9-.4 1.7-.4 2.6z"/>
	</g>
</svg>
