<svg xmlns="http://www.w3.org/2000/svg" viewBox="0 0 2685 1152.2">
	<path class="svgFillDarkBlack" d="M1554 1152.2c-3.2-2.2-3.4-5.4-2.9-8.9l8.4-64.8c2.1-16.4 4.3-32.8 6.5-49.3 3.8-29.5 7.8-58.9 11.4-88.4 1.2-9.9 1.6-19.9 2.5-29.8.3-3.1 1.3-6.2 1.7-9.3 2.8-19.3 5.6-38.7 8.3-58 3.2-23 6.5-46.1 9.5-69.2 1.8-13.6 2.9-27.3 4.6-41 2-16 4.2-32 6.3-48 2.4-18 5-35.9 7.5-53.9 2.5-18.6 4.9-37.3 7.5-55.9 3.8-27.3 7.6-54.7 11.5-82 5.6-40 11.3-80.1 17-120.1 4.2-29.8 8.5-59.6 12.6-89.5 5.2-38.2 9.8-76.5 15.4-114.7 4.5-31.3 10.3-62.3 15-93.6 3.2-21.4 5.7-42.9 8.2-64.3 1.2-10 5.3-13.7 16-9.8 16.8 6.1 34.3 10.4 51.6 15.3 43.1 12 86.2 23.9 129.3 35.8 6.5 1.8 9.2 5.4 8.1 11.9-3.7 23.2-7.5 46.3-11.3 69.4-.9 5.6-4.3 7.7-10.2 6.3-26.4-6.2-52.7-12.6-79.1-18.7-8.4-1.9-17-3.3-26.6-5.1-1.6 8.8-3.3 17.1-4.6 25.6-4.7 30.8-9.3 61.5-13.8 92.3-1.9 12.8-3.3 25.7-5.2 38.5-2.3 15.1-5 30.1-7.4 45.2-2.9 18.7-5.9 37.3-8.5 56-3.3 23.9-6.1 47.8-9.3 71.8-2.2 16.7-4.8 33.3-7.2 49.9-.8 5.3.7 7.1 5.9 7.3 31.9 1.3 63.9 2.7 95.8 4 9.3.4 11.8 3.4 10.3 12.7-4.3 25.6-8.6 51.1-13 76.7-.9 5.3-3.2 7.1-9.6 7.1-12.8.1-25.7 0-38.5.1l-57 .3c-1.6 0-3.3.3-4.9.4-4.1.3-5.3 2.6-5.8 6.5-5.1 36.9-10.5 73.7-15.7 110.6-4.1 29.1-8.2 58.2-12.2 87.3-4.9 35.1-9.7 70.2-14.6 105.4-4.5 33-9 65.9-13.5 98.9-.9 6.7.7 8.1 7.4 6.8 23.5-4.7 46.9-9.6 70.4-14.2 9.4-1.8 18.9-3.1 28.4-4.5 3.8-.6 5.9 1.1 5.7 4.9-.5 6.5-1.1 12.9-2 19.3-1.8 12.8-3.8 25.7-5.7 38.5-1.2 8.3-2.3 16.7-3.3 25.1-1.1 8.7-4.4 13.4-12.5 15.4-26.6 6.6-53.3 12.7-79.8 19.6-21.3 5.5-42.4 12.1-63.6 17.9-11.1 3-22.3 5.5-33.4 8.2-1.9.5-3.7 1.3-5.5 2h-6.1zM0 886.2c2.5-7.8 5.4-15.6 7.5-23.5 5.2-20.1 9.9-40.3 14.8-60.4 25.3-103.4 50.6-206.8 75.8-310.2 8.1-33.1 16.3-66.2 24.2-99.4 7.8-32.7 15.4-65.3 22.7-98.1 1.6-7.3 6.6-10.1 12.8-11.4 17.3-3.5 34.6-6.4 51.9-10.1 21.1-4.4 42.1-9.7 63.2-13.9 17.7-3.5 35.6-6.4 53.5-8.7 13.9-1.8 26.3 3.6 37.4 11.3 3.9 2.7 7.1 7.3 8.8 11.8 3.9 9.8 5.7 20 3.3 30.7-6.3 28.6-12.2 57.2-18 85.9-3.6 17.9-6.5 36-10 53.9-4.2 21-8.4 42-13.1 62.9-4.3 19.1-9 38.2-13.7 57.2-.6 2.5-2.2 4.8-3.7 6.9-7.8 11-17 20.5-29.3 26.5-2.2 1.1-4.5 1.8-6.5 2.6 4.2 3.4 8.9 6.4 12.7 10.3 11.3 11.5 12.7 25.6 9.4 40.5-10.3 46.1-20.8 92.2-31.2 138.2-6 26.5-11.9 53-17.8 79.6-.7 3.2-.5 6.7-1.4 9.8-7.1 25.9-25.7 39-50.7 44.3-18.7 3.9-37.3 2.3-56-1.4-18.4-3.6-37-6.3-55.5-9.5-26.8-4.6-53.7-9.2-80.4-14.2-3.8-.7-7.1-3.7-10.6-5.7-.1-1.9-.1-3.9-.1-5.9zm289.9-566.9c-1.4 0-2.4-.1-3.4 0-20.6 3.8-41.1 7.8-61.7 11.2-5.3.9-7.7 3.4-8.8 8.4-7.5 33.7-15.3 67.4-22.9 101.2-9.4 42.2-18.7 84.4-28.1 126.5-.9 4.2.1 5.9 4.5 5.7 19.8-.7 39.6-1.2 59.4-1.8 4.8-.1 7.7-2.8 8.9-7.3 2.2-9 4.5-18.1 6.4-27.2 6-28.6 11.8-57.2 17.8-85.8 9.3-43.3 18.5-86.8 27.9-130.9zm-69.1 313.8c-4.1-.4-6.7-.8-9.4-.8-18.3-.1-36.6.1-54.9-.1-3.8 0-5.2 1.2-6.1 4.7-4.3 18.5-8.9 37-13.4 55.6-8.9 36.5-17.7 73-26.8 109.4-3.8 15.3-8.1 30.5-12.1 45.7-1.6 6 .4 9.1 5.6 9.8 18.8 2.6 37.5 5.3 56.2 8.1 6.4 1 9.6-.8 11-7.3.9-4.4 1.4-8.9 2.4-13.2 15.1-65.4 30.2-130.8 45.2-196.2 1.2-5.1 1.5-10.2 2.3-15.7zM2685 283.2c-2.6 8.5-5.8 16.9-7.8 25.6-3.3 13.8-11.2 25.1-18 37.1-6.1 10.9-12.3 21.7-18.4 32.6-2 3.6-3.9 7.4-5.8 11-6 10.9-12.1 21.7-17.9 32.7-8.7 16.6-17.4 33.2-25.8 50-10.7 21.6-21.3 43.3-31.5 65.1-6.5 13.8-12 28.1-18.7 41.8-25.8 52.4-48.5 106.2-70.4 160.3-15.9 39.3-31 78.9-46.4 118.4-.7 1.8-1.1 3.8-1.9 6.8 5.6-1 10.4-1.7 15.2-2.7 31.9-6.4 63.8-12.9 95.7-19.4.8-.2 1.6-.3 2.5-.3 7.9-.8 8.8.2 7 7.9-3.6 15.9-7.4 31.7-10.7 47.7-.9 4.2-2.8 7.2-6.8 8.4-10.3 3.1-20.7 6.1-31.1 8.8-19.3 5-38.6 10.2-58.1 14.3-9.5 2-18.6 5.2-27.9 7.6-26.2 6.9-52.5 13.7-78.7 20.6-1.1.3-2.3.6-3.4.8-7.8 1-9.9-1.5-8.6-9.3 5.6-35.3 16.4-69 29.4-102.3 29.2-75.2 57.3-150.8 86.2-226.1 20.9-54.4 48.1-106 72.6-158.8 23.3-50.1 47.2-99.9 70.8-149.8.4-.9.8-1.8 1.3-2.7 2-3.6 1.4-5.7-3-6.7-18.4-4-36.7-8.1-55-12.4-12.3-2.9-24.5-6.3-36.7-9.6-3.9-1.1-6.5-5.6-5.5-9.8 3.6-15.1 7.2-30.1 11.1-45.1.4-1.6 3.1-3.8 4.7-3.8 4.4 0 9 .4 13.3 1.6 32.8 9.4 65.4 19.1 98.2 28.6 23.5 6.8 47 13.3 70.4 20.3 3.6 1.1 6.6 4.5 9.8 6.8-.1 1.4-.1 2.7-.1 4zM1015.9 587.3c.6-1.4 1.6-2.8 1.8-4.3 6.9-47.6 13.6-95.2 20.5-142.8 2.4-16.6 5.5-33.1 7.8-49.7 6.5-46.3 12.9-92.6 19-138.9 2.9-21.9 4.9-43.9 8-65.8 3.7-26.4 8.1-52.6 12-79 1.5-10.4 4.2-12.9 14.6-14.8 18.9-3.5 37.8-7.5 56.7-11.2 2.8-.5 5.6-1.7 8.3-1.3 1.9.3 4.9 2.3 5.1 3.9.6 4.5.6 9.3-.1 13.8-4.8 33.6-9.8 67.2-14.7 100.8-2.4 16.5-4.9 32.9-7.2 49.4-1.5 11-2.4 22.1-3.9 33.2-3.3 23.6-6.9 47.1-10.4 70.6-3.5 23.4-7.1 46.7-10.4 70.1-4 28.3-7.5 56.7-11.7 85-10 66.3-20.2 132.6-30.5 198.8-8.4 54.1-17.1 108.2-25.5 162.2-4.8 30.4-9.6 60.8-14 91.3-5.3 36.7-10.2 73.4-19 109.6-1.1 4.4-2.9 5.9-7.2 5.1-23.1-4.1-46.2-8.1-69.3-12.4-1.9-.4-4.3-2.8-4.9-4.7-1.2-3.7-1.6-7.8-1.7-11.8-.2-15.8-.2-31.6-.1-47.4.2-26.5.9-53 .8-79.4-.1-49.9-.7-99.9-.8-149.8 0-23.3.8-46.6.8-70 0-23.6-.6-47.3-.8-70.9-.1-8.7 0-17.4-.8-26.4-.8 3.9-1.7 7.8-2.3 11.7-8.3 52.3-16.5 104.5-24.7 156.8-5.3 33.5-10.4 67.1-15.6 100.6-5.5 36-10.7 72.1-16.3 108.1-3.2 20.9-7.1 41.7-10.4 62.5-.6 3.9-2.2 5.7-6.2 6.4-11.8 2.1-23.3.1-34.8-1.8-9-1.5-17.9-3.8-26.8-5.8-2.4-.6-4.8-1.5-7.1-2.5-10.2-4.3-10.6-5.3-8.6-15.9 3.8-21.3 7.5-42.6 11.1-63.9 11-64.6 22.2-129.2 33-193.8 3.5-20.8 6-41.8 9.4-62.7 3.4-21.2 7.6-42.3 10.9-63.4 5.2-32.9 9.8-65.8 15-98.7 3-18.6 6.9-36.9 10-55.5 2.1-12.6 3.3-25.3 5.2-38 1.9-12.8 4.3-25.6 6.3-38.4 6.2-39.3 12.3-78.6 18.5-117.8 4.3-27.3 9-54.5 13.4-81.8 3.9-23.6 7.7-47.3 11.4-70.9.7-4.7 3.2-7 7.5-8 19-4.2 38-8.4 56.9-12.7 2.7-.6 5.4-1.6 8-2.7 8.1-3.5 13.9.4 13.8 9.1-.2 22.1 0 44.3-.1 66.4-.2 25.5-.6 50.9-.7 76.4-.1 10.9.5 21.9.6 32.8.1 19.1.2 38.3.2 57.4 0 20.6-.1 41.3-.4 61.9-.1 6-1.4 11.9-1.4 17.8 0 7.6.9 15.3.9 22.9 0 39.1-.2 78.3-.3 117.4 0 4.1-.4 8.2-.7 12.3.7.2 1.3.4 1.9.6zM1396.4 638.3c-4.3-.4-8-1-11.7-1-17 0-34 .2-51 .3-3.7 0-6.2 1.1-6.8 5.5-1.4 10.7-3.2 21.3-4.9 32-1.1 7.1-2.4 14.2-3.4 21.3-1.3 9.5-2.4 18.9-3.6 28.4-1 8.3-2 16.6-3.2 24.9-1.5 10.5-3.2 21-4.8 31.5-2.3 15.4-4.7 30.7-6.9 46.1-1.8 12.8-3.3 25.7-5.1 38.6-1.8 12.4-4 24.8-5.8 37.3-1.5 10.4-2.7 20.8-4.2 31.2-1.5 10.2-3.2 20.3-4.7 30.5-1.5 9.9-2.8 19.8-4.3 29.6-1.6 10.5-3.3 21-4.8 31.5-1.5 10.2-2.8 20.4-4.2 30.6-1.7 11.8-3.3 23.6-5 35.5-.9 6.3-2.1 12.5-2.9 18.8-.7 5.9-3.3 8.1-9 7.1-22-3.9-44.1-7.7-66.1-11.6-7.9-1.4-10.1-4.9-8.6-12.7 2.2-11.6 3.8-23.3 5.6-34.9 1.6-10.3 3.4-20.7 4.9-31 1.8-12.1 3.5-24.3 5.2-36.4 1.4-9.5 2.9-19.1 4.3-28.6 1.6-10.5 3.1-21 4.7-31.5 1.6-11.2 3.3-22.3 4.8-33.5 1.2-8.6 2-17.3 3.2-25.9 1.5-10.7 3.1-21.3 4.7-32 1.4-9.5 2.8-19.1 4.2-28.6 1.5-9.9 3.1-19.7 4.5-29.6 1.6-11.2 2.9-22.4 4.6-33.6 1.8-12.4 3.9-24.9 5.8-37.3 1.5-10.2 2.7-20.4 4.2-30.6 2.2-14.8 4.5-29.5 6.7-44.3 1.5-9.7 2.8-19.5 4.2-29.2 2-13.4 4-26.8 5.9-40.3 1.4-9.7 2.7-19.5 4.1-29.2 2.3-15.7 4.7-31.4 6.9-47.1 2.5-17.5 4.6-35 7.1-52.5 2.1-15 4.7-30 6.8-45.1 1.5-10.6 2.7-21.2 4.2-31.8 1.9-13.2 4-26.3 5.9-39.4.9-6 1.3-12.1 2.1-18.1 1.4-10.2 2.9-20.4 4.3-30.6 1-7.6 1.7-15.3 2.7-23 1.8-14.5 3.8-29 5.6-43.6 1.1-9.1 1.9-18.3 3.1-27.4.5-4.3 1.7-8.5 2.3-12.7 2.1-14.4 4-28.8 6-43.2 1.9-13.2 4-26.3 5.9-39.5.9-6 1.2-12.1 2.2-18.1 2.3-13.6 5.1-17.9 20.8-20.9 16-3 31.9-6.5 47.8-9.7 4-.8 8-1.7 12.1-2.2 3.6-.4 6.3 1.2 6.2 5.1-.1 5.8-.5 11.5-1.2 17.3-1.1 9.1-2.5 18.2-3.7 27.2-1.9 13.6-3.9 27.2-5.7 40.8-1.2 9.3-1.9 18.6-3.1 27.9-1 7.8-2.4 15.6-3.6 23.4-1.3 8.7-2.4 17.5-3.6 26.3-1.5 10.9-2.9 21.7-4.3 32.6-1.2 8.9-2.4 17.8-3.7 26.7-1.5 11-3.2 22-4.7 33-1.5 10.8-4.4 21.4-4.4 32.4 0 4.1-1.9 8.2-2.5 12.3-.7 5.3-.7 10.6-1.4 15.9-2.2 16.4-4.6 32.7-6.9 49-1.8 13.1-3.4 26.3-5.1 39.5-1 8-2.1 15.9-3.1 23.9-.1 1.2 0 2.4.6 3.7 3.1-10.4 6.1-20.9 9.5-31.3 1.8-5.5 4.9-10.7 6.5-16.2 1.9-6.5 2.7-13.4 4.5-20 5.5-20.1 11.2-40.1 16.8-60.2 7.1-25.7 14.1-51.4 21.2-77.2 7.1-25.7 14.3-51.4 21.3-77.1 2.6-9.6 5-19.2 7.6-28.8 6.3-23.6 12.6-47.2 19.1-70.7 4.5-16.3 9.4-32.5 14-48.8.9-3.3 1.7-6.8 1.7-10.2.1-5.8 6.4-12.5 12.1-13.8 22-4.8 43.8-9.9 65.7-14.8 6.6-1.5 10 1.9 8.3 8.8-8.8 35.7-17.7 71.4-26.5 107.1-3.4 13.8-6.7 27.6-10.4 41.2-7.2 26.6-14.8 53.1-22 79.6-6.8 25.2-13.3 50.5-20.1 75.7-6.2 22.9-12.7 45.8-18.9 68.7-5.4 19.8-10.5 39.7-16.1 59.4-3.2 11.3-7.1 22.3-10.5 33.5-1.2 4.2-1.4 8.7-2.6 12.9-1.6 5.6-4.2 10.9-5.7 16.5-2.8 10.2-5.1 20.4-7.6 30.7 15.2 2.7 29.2 7.2 39.3 18.6 7.8 8.8 13.1 19.4 16.9 30.8 6.3 18.9 6.4 38.1 4.2 57.5-1.6 13.8-3.2 27.7-5.1 41.5-1.8 13.4-4 26.8-5.8 40.3-1.5 11.2-2.6 22.5-4.2 33.7-1.3 9.1-3.1 18.1-4.3 27.2-1.7 12.9-3 25.8-4.7 38.6-1.8 13.1-4 26.2-5.8 39.3-1.5 11.1-2.7 22.2-4.2 33.2-1.5 10.9-3.2 21.7-4.7 32.5-1.5 10.5-2.8 21.1-4.3 31.6-1.6 11.2-3.2 22.3-4.8 33.5-1.4 10.4-2.7 20.8-4.2 31.1-1.6 11-3.6 21.9-5.2 32.9-.8 5.7-1 11.4-1.8 17.1-1.5 11.3-3.3 22.7-4.8 34-1.4 10.4-2.9 20.8-4.1 31.2-.6 4.8-2.3 6.8-7.1 6.1-10.9-1.7-21.9-3.5-32.8-5.4-12.1-2.1-24.1-4.5-36.1-6.5-6.6-1.1-8.8-4.4-7.6-11 1.8-10.5 3.1-21 4.6-31.6 1.4-10 3-20.1 4.3-30.1 1-7.8 1.4-15.7 2.4-23.6 2.3-16.8 4.9-33.5 7.2-50.2 2.1-15.3 3.8-30.6 6.1-45.9 2-12.9 4.7-25.7 6.7-38.6 1.1-7.3 1.3-14.7 2.2-22.1 1.4-11 2.9-22.1 4.5-33.1 1.5-10.9 2.9-21.8 4.5-32.6.9-6.5 2.2-12.9 3.1-19.3 1.1-7.5 1.8-15 2.9-22.5 1.5-11 3.2-22 4.7-33 1.5-10.4 2.8-20.9 4.3-31.3 1.6-11.3 3.3-22.6 4.9-34 1.7-11.6 3.1-23.4 4.7-35.9zM2206.2 559.6c3.8 3.6 6.7 6.9 10.1 9.3 11.2 7.8 14.8 19.3 14.6 31.7-.2 10.5-2.5 21.1-4.4 31.5-5 27.5-10.3 54.9-15.5 82.4-7.8 42-15.8 84-23.3 126.1-4.7 26.2-8.4 52.5-12.8 78.7-3.7 21.8-7.9 43.5-11.5 65.3-1.2 7.5-5.3 12.2-12 14.5-7.4 2.5-15 4.3-22.5 6.3-14.7 3.8-29.3 7.5-44 11.1-7.5 1.9-9.7.3-9-7.3 1-9.9 2.8-19.7 4.2-29.5.6-4.3 1-8.6 1.7-12.8 3.4-20.6 7-41.2 10.3-61.9 4.7-29 9-58.1 13.9-87.1 7.9-46.6 16.2-93.1 24.4-139.6 4.3-24.4 8.8-48.8 13.1-73.2.4-2.2.4-4.6.5-6.8-17.2 0-33.9-.1-50.7 0-5.8 0-11.6.4-17.4.7-4 .2-6.1 2.4-6.7 6.6-3.7 24.3-7.3 48.7-11.4 73-7 42.5-14.4 85-21.5 127.5-6.4 38.4-12.5 76.8-18.8 115.1l-17.1 104.4c-.2 1.5-.4 3-.6 4.4-.9 5.8-4.1 9-9.8 10.5-19 4.8-38 9.7-57 14.7-3.4.9-6.6 2.4-10 3-3 .5-6.2.3-9.2-.1-3.2-.4-4.2-2.6-3.7-5.8 3.5-22.2 6.9-44.4 10.3-66.6 6.2-39.6 12.3-79.2 18.6-118.9 6.1-38.8 12.5-77.5 18.4-116.3 2.8-18.4 4.9-36.8 7.5-55.2 2.2-15.3 4.9-30.5 7.4-45.8 4-24.5 8-48.9 12.2-73.4 5.7-33.8 11.5-67.6 17.2-101.3 4.4-25.9 8.7-51.8 13.2-77.7 13.4-76.7 26.8-153.3 40.2-230 3.5-20.1 7.3-40.3 10.9-60.4.9-5.1 4.4-6.9 10.1-5.3 12 3.4 23.9 7 35.9 10.4 25.4 7.2 50.9 14.1 76.2 21.5 20.1 5.9 40.1 11.9 59.8 19 16.8 6.1 29.6 18.2 41 31.7 16.4 19.5 17.9 41.7 12.6 65.4-6.1 27.4-12.1 54.9-17.6 82.4-10.1 49.9-19.8 99.8-29.6 149.7-2.3 11.4-4.3 22.9-7 34.2-4.1 17.8-16.1 29.4-31.3 38.3-2.8 1.9-5.9 3.5-9.9 5.6zm-120-45.4c2.4.4 3.5.7 4.7.8 18.1.8 36.3 1.6 54.4 2.3 4.1.2 9.5 1.5 12.1-.6 2.5-1.9 2.1-7.5 2.9-11.5 5-26.1 10-52.3 15-78.4 13.1-67.6 26.2-135.2 39.4-202.8.8-4.3-1.7-5.7-4.9-6.7-3.8-1.1-7.7-1.9-11.6-2.8l-50.7-10.8c-3.5-.7-5.6.1-6.3 4.1-6 32.6-12.1 65.1-18.1 97.6-10.2 55.9-20.4 111.9-30.5 167.9-2.5 13.5-4.3 27-6.4 40.9zM402.4 910.9c3.1-16.5 5.9-33 9.3-49.5 11.7-56.5 23.5-113 35.3-169.5 3.6-17.1 7.3-34.1 10.6-51.2 10-51.6 19.8-103.2 29.6-154.8 4.4-23.3 8.5-46.7 12.9-70 9.1-48.1 18.4-96.1 27.5-144.2 2-10.5 6.6-19.8 12.5-28.6 13.5-19.8 30.1-36.1 51.5-47.4 12.2-6.5 25.4-9.7 38.8-12.4 20.7-4.1 41.4-8.3 62.1-12.6 13.3-2.7 26.5-4.3 40.1-1.9 24.3 4.2 36.8 26.7 37.1 44.9.2 13.1-2.8 26.4-4.8 39.5-2.6 17.3-5.5 34.5-8.5 51.7-5.8 33.3-11.9 66.5-17.6 99.8-7.7 44.4-15 88.9-22.7 133.3-7.3 42.1-14.8 84.2-22.5 126.2-10.7 58.7-21.7 117.4-32.5 176.2-2.5 13.6-5.2 27.1-7.5 40.7-3 17.3-5.7 34.8-8.7 52.1-5.7 32.5-26.3 50.2-57.2 58-14.5 3.7-28.7 1.6-43-.9-26.4-4.6-52.9-8.2-79.2-13.3-20.9-4.1-38.3-14.9-51.6-31.7-8-10-10.4-21.7-9.9-34.2-.7-.1-1.1-.2-1.6-.2zm89.7-3.4c.5.4.7.7 1 .8 20.9 3.8 41.8 7.7 62.8 11.3 1.1.2 3.6-2.2 3.9-3.7 3.6-18.1 6.8-36.3 10.2-54.4 12.2-66 24.3-131.9 36.5-197.9 12.5-67.8 25-135.5 37.5-203.3 12.6-67.9 25.1-135.9 37.7-203.8.8-4.2-1.2-6.6-5.4-5.9-18.4 3.1-36.7 6.3-55.1 9.5-6.1 1.1-9.5 4.7-10.6 11-3.4 19.3-7.2 38.6-10.6 57.9-6.2 34.8-12 69.7-18.3 104.5-5.8 32.2-12 64.4-18.1 96.6-4.6 24.5-9.3 48.9-13.9 73.4-8.2 43.1-16.5 86.2-24.6 129.3-6.6 34.6-13.1 69.3-19.6 103.9-4.5 23.6-8.9 47.3-13.4 70.8z"/>
</svg>
