<svg xmlns="http://www.w3.org/2000/svg" viewBox="0 0 93.1 92.9">
	<g class="svgFillDarkBlack">
		<path d="M0 0h23.8v25.6s-7.7 11.8.2 25.2l.7 9.6 6.4 2.8V66s.2-.7-5.9-3.1l.1 4.9 5 2.3s-.2 2.6.4 3.5c.7.9 3.9.6 4.6.7h13.4v18.4H0V0z"/>
		<path d="M34.4 64.9v2.8l1.1.2v-2.7m3.4.8h1.6v2.8h-1.6zm5 0h1.7v2.8h-1.7zm5.6-1.4v2.8l-1 .5v-3M28.5 45l9.5 2.6s1.5 5.7-4.7 7.8c0 0-6.8.8-7.2-6.3 0 0 0-4.2 2.4-4.1zm25.7 0l-9.5 2.6s-1.5 5.7 4.7 7.8c0 0 6.8.8 7.2-6.3.1 0 .1-4.2-2.4-4.1z"/>
		<path d="M27.2 0v22.1s3.1-3.6 12.7-3.6 22.5 4.4 22.5 19.8c0 0-.5 10-3.6 13.1l-.5 8.8-5.3 2.1v2.2l4.4-1.7v4.5l-4.8 2.8-.4 22.7S93 87 93 46.4 54.2-.1 50.6 0 27.2 0 27.2 0z"/>
		<path d="M41.5 54s1.9 2 1.9 4.5c0 0-1.3-.9-1.9-.9s-2 .9-2 .9-.1-2.4 2-4.5z"/>
	</g>
</svg>
