<?xml version="1.0" standalone="no"?>
<!DOCTYPE svg PUBLIC "-//W3C//DTD SVG 20010904//EN"
 "http://www.w3.org/TR/2001/REC-SVG-20010904/DTD/svg10.dtd">
<svg version="1.0" xmlns="http://www.w3.org/2000/svg"
 width="700.000000pt" height="700.000000pt" viewBox="0 0 700.000000 700.000000"
 preserveAspectRatio="xMidYMid meet">
<metadata>
Created by potrace 1.11, written by Peter Selinger 2001-2013
</metadata>
<g transform="translate(0.000000,700.000000) scale(0.100000,-0.100000)"
fill="#000000" stroke="none">
<path d="M149 6888 c0 -2 -1 -1510 -2 -3351 -1 -2224 1 -3351 8 -3355 6 -4
215 -7 465 -8 1766 -8 4256 -16 5159 -17 l1074 -2 0 3363 c0 1849 -3 3365 -6
3368 -3 3 -632 -310 -1399 -694 -766 -385 -1518 -763 -1671 -839 l-278 -139
-327 164 c-180 90 -931 467 -1669 838 -1255 630 -1352 678 -1354 672z"/>
</g>
</svg>
